{"title":"My Friend Bernard 2010 DVDRip Xvid LKRG","uid":5877508,"size":789621868,"categoryP":"video","categoryS":"movies","magnet":"?xt=urn:btih:bb2dd95f7b7e32f0e060e6b51caa456b6a1a4b76&amp;dn=My+Friend+Bernard+2010+DVDRip+Xvid+LKRG&amp;tr=udp%3A%2F%2Ftracker.openbittorrent.com%3A80&amp;tr=udp%3A%2F%2Fopen.demonii.com%3A1337&amp;tr=udp%3A%2F%2Ftracker.coppersurfer.tk%3A6969&amp;tr=udp%3A%2F%2Fexodus.desync.com%3A6969","seeders":0,"leechers":1,"uploader":"neon","files":-1,"time":1286706064,"description":"Kids/Animated Movie\n &lt;a href=&quot;\nhttp://www.bernardbear.com/&quot; rel=&quot;nofollow&quot; target=&quot;_NEW&quot;&gt;\nhttp://www.bernardbear.com/&lt;/a&gt;\n &lt;a href=&quot;\nhttp://www.youtube.com/watch?v=3Km4XEfuU84&amp;feature=player_embedded&quot; rel=&quot;nofollow&quot; target=&quot;_NEW&quot;&gt;\nhttp://www.youtube.com/watch?v=3Km4XEfuU84&amp;feature=player_embedded&lt;/a&gt;\n &lt;a href=&quot;\nhttp://img831.imageshack.us/img831/7993/vlcsnap2010100800h26m09.png&quot; rel=&quot;nofollow&quot; target=&quot;_NEW&quot;&gt;\nhttp://img831.imageshack.us/img831/7993/vlcsnap2010100800h26m09.png&lt;/a&gt; &lt;a href=&quot;\nhttp://img651.imageshack.us/img651/4936/vlcsnap2010100800h25m51.png&quot; rel=&quot;nofollow&quot; target=&quot;_NEW&quot;&gt;\nhttp://img651.imageshack.us/img651/4936/vlcsnap2010100800h25m51.png&lt;/a&gt; &lt;a href=&quot;\nhttp://img221.imageshack.us/img221/4658/vlcsnap2010100800h25m18.png&quot; rel=&quot;nofollow&quot; target=&quot;_NEW&quot;&gt;\nhttp://img221.imageshack.us/img221/4658/vlcsnap2010100800h25m18.png&lt;/a&gt; &lt;a href=&quot;\nhttp://img710.imageshack.us/img710/7466/vlcsnap2010100800h24m57.png&quot; rel=&quot;nofollow&quot; target=&quot;_NEW&quot;&gt;\nhttp://img710.imageshack.us/img710/7466/vlcsnap2010100800h24m57.png&lt;/a&gt; &lt;a href=&quot;\nhttp://img32.imageshack.us/img32/413/vlcsnap2010100800h27m01.png&quot; rel=&quot;nofollow&quot; target=&quot;_NEW&quot;&gt;\nhttp://img32.imageshack.us/img32/413/vlcsnap2010100800h27m01.png&lt;/a&gt; &lt;a href=&quot;\nhttp://img42.imageshack.us/img42/2700/vlcsnap2010100800h27m15.png&quot; rel=&quot;nofollow&quot; target=&quot;_NEW&quot;&gt;\nhttp://img42.imageshack.us/img42/2700/vlcsnap2010100800h27m15.png&lt;/a&gt;\n\n\nDuration:1:10\n\nRelease Date:2010\n\nLanguage:English\n\nFormat;Avi\n\nVideo: ID : 0\nFormat : MPEG-4 Visual\nFormat profile : Simple@L3\nFormat settings, BVOP : No\nFormat settings, QPel : No\nFormat settings, GMC : No warppoints\nFormat settings, Matrix : Default (H.263)\nCodec ID : XVID\nCodec ID/Hint : XviD\nDuration : 1h 10mn\nBit rate : 1 044 Kbps\nWidth : 720 pixels\nHeight : 400 pixels\nDisplay aspect ratio : 16:9\nFrame rate : 23.976 fps\nResolution : 8 bits\nColorimetry : 4:2:0\nScan type : Progressive\nBits/(Pixel*Frame) : 0.151\nStream size : 527 MiB (70%)\n\n\nAudio: ID : 1\nFormat : AC-3\nFormat/Info : Audio Coding 3\nCodec ID : 2000\nDuration : 1h 10mn\nBit rate mode : Constant\nBit rate : 448 Kbps\nChannel(s) : 6 channels\nChannel positions : Front: L C R, Surround: L R, LFE\nSampling rate : 48.0 KHz\nStream size : 226 MiB (30%)\nAlignment : Split accross interleaves\nInterleave, duration : 500 ms (11.99 video frames)\nInterleave, preload duration : 500 ms","torrent":{"xt":"urn:btih:bb2dd95f7b7e32f0e060e6b51caa456b6a1a4b76","amp;dn":"My+Friend+Bernard+2010+DVDRip+Xvid+LKRG","amp;tr":["udp%3A%2F%2Ftracker.openbittorrent.com%3A80","udp%3A%2F%2Fopen.demonii.com%3A1337","udp%3A%2F%2Ftracker.coppersurfer.tk%3A6969","udp%3A%2F%2Fexodus.desync.com%3A6969"],"infoHash":"bb2dd95f7b7e32f0e060e6b51caa456b6a1a4b76","infoHashBuffer":{"type":"Buffer","data":[187,45,217,95,123,126,50,240,224,96,230,181,28,170,69,107,106,26,75,118]},"announce":[],"urlList":[]}}